<?xml version="1.0" encoding="UTF-8" standalone="no"?><svg xmlns="http://www.w3.org/2000/svg" xmlns:xlink= "http://www.w3.org/1999/xlink" width="600" height="390" aria-label="A chart." style="overflow: hidden;"><defs id="_ABSTRACT_RENDERER_ID_198"><clipPath id="_ABSTRACT_RENDERER_ID_199"><rect x="115" y="75" width="371" height="241"></rect></clipPath></defs><rect x="0" y="0" width="600" height="390" stroke="none" stroke-width="0" fill="#ffffff"></rect><g><text text-anchor="start" x="115" y="52.05" font-family="Arial" font-size="13" font-weight="bold" stroke="none" stroke-width="0" fill="#000000">CP-ABE Encryption Time at CSP</text><rect x="115" y="41" width="371" height="13" stroke="none" stroke-width="0" fill-opacity="0" fill="#ffffff"></rect></g><g><rect x="260" y="368" width="80" height="13" stroke="none" stroke-width="0" fill-opacity="0" fill="#ffffff"></rect><g><rect x="260" y="368" width="80" height="13" stroke="none" stroke-width="0" fill-opacity="0" fill="#ffffff"></rect><g><text text-anchor="start" x="291" y="379.05" font-family="Arial" font-size="13" stroke="none" stroke-width="0" fill="#222222">1st Time</text></g><rect x="260" y="368" width="26" height="13" stroke="none" stroke-width="0" fill="#3f6dd9"></rect></g></g><g><rect x="115" y="75" width="371" height="241" stroke="none" stroke-width="0" fill-opacity="0" fill="#ffffff"></rect><g clip-path="url(https://www.rapidtables.com/tools/bar-graph.html#_ABSTRACT_RENDERER_ID_199)"><g><rect x="115" y="315" width="371" height="1" stroke="none" stroke-width="0" fill="#cccccc"></rect><rect x="115" y="255" width="371" height="1" stroke="none" stroke-width="0" fill="#cccccc"></rect><rect x="115" y="195" width="371" height="1" stroke="none" stroke-width="0" fill="#cccccc"></rect><rect x="115" y="135" width="371" height="1" stroke="none" stroke-width="0" fill="#cccccc"></rect><rect x="115" y="75" width="371" height="1" stroke="none" stroke-width="0" fill="#cccccc"></rect><rect x="115" y="285" width="371" height="1" stroke="none" stroke-width="0" fill="#ebebeb"></rect><rect x="115" y="225" width="371" height="1" stroke="none" stroke-width="0" fill="#ebebeb"></rect><rect x="115" y="165" width="371" height="1" stroke="none" stroke-width="0" fill="#ebebeb"></rect><rect x="115" y="105" width="371" height="1" stroke="none" stroke-width="0" fill="#ebebeb"></rect></g><g><rect x="139" y="234" width="76" height="81" stroke="none" stroke-width="0" fill="#3f6dd9"></rect><rect x="262" y="174" width="77" height="141" stroke="none" stroke-width="0" fill="#3f6dd9"></rect><rect x="386" y="109" width="76" height="206" stroke="none" stroke-width="0" fill="#3f6dd9"></rect></g><g><rect x="115" y="315" width="371" height="1" stroke="none" stroke-width="0" fill="#333333"></rect></g></g><g></g><g><g><text text-anchor="middle" x="177.16666666666666" y="335.05" font-family="Arial" font-size="13" stroke="none" stroke-width="0" fill="#222222">10</text></g><g><text text-anchor="middle" x="300.5" y="335.05" font-family="Arial" font-size="13" stroke="none" stroke-width="0" fill="#222222">20</text></g><g><text text-anchor="middle" x="423.8333333333333" y="335.05" font-family="Arial" font-size="13" stroke="none" stroke-width="0" fill="#222222">30</text></g><g><text text-anchor="end" x="102" y="320.05" font-family="Arial" font-size="13" stroke="none" stroke-width="0" fill="#444444">0</text></g><g><text text-anchor="end" x="102" y="260.05" font-family="Arial" font-size="13" stroke="none" stroke-width="0" fill="#444444">10</text></g><g><text text-anchor="end" x="102" y="200.05" font-family="Arial" font-size="13" stroke="none" stroke-width="0" fill="#444444">20</text></g><g><text text-anchor="end" x="102" y="140.05" font-family="Arial" font-size="13" stroke="none" stroke-width="0" fill="#444444">30</text></g><g><text text-anchor="end" x="102" y="80.05" font-family="Arial" font-size="13" stroke="none" stroke-width="0" fill="#444444">40</text></g></g></g><g><g><text text-anchor="middle" x="300.5" y="357.05" font-family="Arial" font-size="13" font-style="italic" stroke="none" stroke-width="0" fill="#222222">File size(MB)</text><rect x="115" y="346" width="371" height="13" stroke="none" stroke-width="0" fill-opacity="0" fill="#ffffff"></rect></g><g><text text-anchor="middle" x="48.55" y="195.5" font-family="Arial" font-size="13" font-style="italic" transform="rotate(-90 48.55 195.5)" stroke="none" stroke-width="0" fill="#222222">Time(ms)</text><path d="M37.49999999999999,316L37.50000000000001,75L50.50000000000001,75L50.49999999999999,316Z" stroke="none" stroke-width="0" fill-opacity="0" fill="#ffffff"></path></g></g><g></g></svg>